<?xml version="1.0" standalone="no"?><!DOCTYPE svg PUBLIC "-//W3C//DTD SVG 1.1//EN" "http://www.w3.org/Graphics/SVG/1.1/DTD/svg11.dtd"><svg t="1665654063915" class="icon" viewBox="0 0 1024 1024" version="1.1" xmlns="http://www.w3.org/2000/svg" p-id="19933" width="16" height="16" xmlns:xlink="http://www.w3.org/1999/xlink"><path d="M517.389474 458.105263m-91.621053 0a91.621053 91.621053 0 1 0 183.242105 0 91.621053 91.621053 0 1 0-183.242105 0Z" fill="#10ABFF" opacity=".4" p-id="19934"></path><path d="M832.673684 695.242105h-40.421052L708.715789 215.578947C700.631579 172.463158 673.684211 145.515789 638.652632 145.515789h-242.526316c-35.031579 0-61.978947 24.252632-70.063158 67.368422L239.831579 695.242105H202.105263c-16.168421 0-29.642105 13.473684-29.642105 29.642106v121.263157c0 16.168421 13.473684 29.642105 29.642105 29.642106h630.568421c16.168421 0 29.642105-13.473684 29.642105-29.642106v-121.263157c0-16.168421-13.473684-29.642105-29.642105-29.642106zM361.094737 220.968421c2.694737-13.473684 10.778947-37.726316 35.031579-37.726316h242.526316c21.557895 0 29.642105 24.252632 35.031579 37.726316l80.842105 474.273684H277.557895l83.536842-474.273684z m463.494737 617.094737H207.494737v-107.789474H824.589474v107.789474z" fill="#10ABFF" p-id="19935"></path><path d="M517.389474 568.589474c59.284211 0 110.484211-48.505263 110.48421-110.484211s-51.2-107.789474-110.48421-107.789474-110.484211 48.505263-110.484211 110.484211 48.505263 107.789474 110.484211 107.789474z m0-180.547369c40.421053 0 72.757895 32.336842 72.757894 72.757895s-32.336842 72.757895-72.757894 72.757895c-40.421053 0-72.757895-32.336842-72.757895-72.757895s32.336842-72.757895 72.757895-72.757895zM824.589474 350.315789h8.08421l94.31579-37.726315c10.778947-2.694737 13.473684-13.473684 10.778947-24.252632s-13.473684-13.473684-24.252632-10.778947l-94.315789 37.726316c-10.778947 2.694737-13.473684 13.473684-10.778947 24.252631 0 5.389474 8.084211 10.778947 16.168421 10.778947zM924.294737 565.894737l-94.31579-37.726316c-10.778947-2.694737-21.557895 0-24.252631 10.778947-2.694737 10.778947 0 21.557895 10.778947 24.252632l94.31579 37.726316h8.08421c8.084211 0 13.473684-5.389474 18.863158-10.778948 0-8.084211-5.389474-18.863158-13.473684-24.252631zM970.105263 420.378947h-145.515789c-10.778947 0-18.863158 8.084211-18.863158 18.863158s8.084211 18.863158 18.863158 18.863158H970.105263c10.778947 0 18.863158-8.084211 18.863158-18.863158s-8.084211-18.863158-18.863158-18.863158zM99.705263 312.589474L194.021053 350.315789h8.08421c8.084211 0 13.473684-5.389474 18.863158-10.778947 2.694737-10.778947 0-21.557895-10.778947-24.252631l-94.31579-37.726316c-10.778947-2.694737-21.557895 0-24.252631 10.778947-5.389474 10.778947 0 21.557895 8.08421 24.252632zM218.273684 541.642105c-2.694737-10.778947-13.473684-13.473684-24.252631-10.778947L99.705263 565.894737c-10.778947 2.694737-13.473684 13.473684-10.778947 24.252631 2.694737 8.084211 10.778947 10.778947 18.863158 10.778948h8.08421L207.494737 565.894737c8.084211-5.389474 13.473684-16.168421 10.778947-24.252632zM218.273684 439.242105c0-10.778947-8.084211-18.863158-18.863158-18.863158H53.894737c-10.778947 0-18.863158 8.084211-18.863158 18.863158s8.084211 18.863158 18.863158 18.863158h145.515789c10.778947 0 18.863158-8.084211 18.863158-18.863158z" fill="#10ABFF" p-id="19936"></path></svg>