<?xml version="1.0" standalone="no"?><!DOCTYPE svg PUBLIC "-//W3C//DTD SVG 1.1//EN" "http://www.w3.org/Graphics/SVG/1.1/DTD/svg11.dtd"><svg t="1665654033127" class="icon" viewBox="0 0 1024 1024" version="1.1" xmlns="http://www.w3.org/2000/svg" p-id="19366" width="16" height="16" xmlns:xlink="http://www.w3.org/1999/xlink"><path d="M855.5008 517.7856h-112.8448l-10.2912-422.2976a27.0848 27.0848 0 1 0-54.1696 0l-8.5504 422.2976H344.3712l-10.24-422.2976a27.136 27.136 0 1 0-54.272 0L271.36 517.7856H158.5152a49.7664 49.7664 0 0 0-49.7664 49.7664v348.5184c0 27.4944 22.272 49.7664 49.7664 49.7664h696.9856a49.7664 49.7664 0 0 0 49.7152-49.7664v-348.5184a49.7664 49.7664 0 0 0-49.7152-49.7664zM233.216 667.136a24.8832 24.8832 0 1 1 0-49.7664 24.8832 24.8832 0 0 1 0 49.7664z m99.5328 0a24.8832 24.8832 0 1 1 0-49.7664 24.8832 24.8832 0 0 1 0 49.7664z m99.584 0a24.9344 24.9344 0 1 1 0.0512-49.8176 24.9344 24.9344 0 0 1-0.0512 49.8176z m273.7664 223.9488a24.8832 24.8832 0 1 1-49.8176 0v-99.4304a25.088 25.088 0 0 1 25.0368-24.9856c13.7216 0 24.832 11.1104 24.832 24.9344v99.4816z m99.584 0a24.8832 24.8832 0 1 1-49.7664 0v-99.4304a24.9344 24.9344 0 1 1 49.8176-0.0512v99.4816z" fill="#00A0E9" p-id="19367"></path></svg>