<?xml version="1.0" encoding="utf-8"?>
<!-- Generator: Adobe Illustrator 22.0.0, SVG Export Plug-In . SVG Version: 6.00 Build 0)  -->
<svg version="1.1" id="图层_1" xmlns="http://www.w3.org/2000/svg" xmlns:xlink="http://www.w3.org/1999/xlink" x="0px" y="0px"
	 viewBox="0 0 25 25" style="enable-background:new 0 0 25 25;" xml:space="preserve">
<style type="text/css">
	.st0{fill:#FFFFFF;}
	.st1{fill:#0092CC;}
</style>
<title>asset</title>
<g>
	<circle class="st0" cx="12.5" cy="9.2" r="7.4"/>
	<path class="st1" d="M12.5,0.3C7.7,0,3.6,3.6,3.4,8.4c0,0.4,0,0.7,0,1.1c0,5.9,9.1,15.2,9.1,15.2s9.1-9.3,9.1-15.3
		c0.3-4.8-3.3-8.9-8.1-9.2C13.2,0.3,12.9,0.3,12.5,0.3z M12.5,14.9c-3.4,0-6.1-2.7-6.1-6.1s2.7-6.1,6.1-6.1c3.4,0,6.1,2.7,6.1,6.1
		c0,0,0,0,0,0.1C18.6,12.2,15.9,14.9,12.5,14.9L12.5,14.9z"/>
	<path class="st1" d="M16.7,9.7V6.8c0-0.5-0.3-0.9-0.7-1.1l0,0l-2.9-1.5c-0.4-0.2-0.9-0.2-1.3,0L9,5.7C8.6,6,8.3,6.4,8.3,6.8v2.9
		c0,0.5,0.3,0.9,0.7,1.1l2.9,1.5c0.4,0.2,0.9,0.2,1.3,0l2.9-1.5C16.4,10.5,16.7,10.1,16.7,9.7z M11.9,11.1L9.5,9.9
		c-0.1,0-0.1-0.1-0.1-0.2V7.2L12,8.6L11.9,11.1z M9.9,6.4l2.6-1.3c0.1,0,0.1,0,0.2,0l2.4,1.3l-2.6,1.3L9.9,6.4z M15.6,9.7
		c0,0.1,0,0.2-0.1,0.2L13,11.1V8.6l2.6-1.3V9.7z"/>
</g>
</svg>
