<?xml version="1.0" standalone="no"?><!DOCTYPE svg PUBLIC "-//W3C//DTD SVG 1.1//EN" "http://www.w3.org/Graphics/SVG/1.1/DTD/svg11.dtd"><svg t="1665654177563" class="icon" viewBox="0 0 1024 1024" version="1.1" xmlns="http://www.w3.org/2000/svg" p-id="23150" width="16" height="16" xmlns:xlink="http://www.w3.org/1999/xlink"><path d="M517.504 293.290667c-13.056 0-24.064 12.288-24.064 26.88v109.824c0 14.592 11.008 26.88 24.064 26.88 13.056 0 24.064-12.288 24.064-26.88V320.170667c0-14.592-10.325333-26.88-24.064-26.88z m175.36 0.768c-13.098667-2.304-25.472 5.376-28.202667 16.896l-24.746666 121.344c-2.090667 10.752 6.186667 21.546667 19.2 23.850666 13.098667 2.304 25.472-5.418667 28.245333-16.938666l24.746667-121.344c2.048-10.752-6.186667-21.504-19.242667-23.808z m-314.965333 16.896c-2.048-10.752-15.146667-18.432-28.16-16.896-13.098667 2.304-22.058667 12.288-19.285334 23.808l24.746667 121.344c2.048 10.752 15.146667 18.474667 28.16 16.938666 13.098667-1.536 22.058667-12.330667 19.285333-23.850666l-24.746666-121.344z m-26.965334 541.738666c8.277333 9.898667 7.552 26.154667-0.725333 36.096A20.906667 20.906667 0 0 1 336.64 896l-1.493333-0.896a19.029333 19.029333 0 0 1-14.293334-7.253333c-21.077333-21.632-33.834667-53.205333-34.602666-86.613334a146.602667 146.602667 0 0 1 34.602666-89.344c22.570667-27.093333 33.109333-52.352 30.08-74.922666-3.754667-18.944-13.525333-35.2-27.050666-45.098667-9.813333-7.253333-12.8-21.674667-7.552-33.408 6.016-11.733333 18.048-15.36 27.861333-9.045333 24.789333 18.090667 42.112 47.872 47.36 81.237333 4.522667 38.826667-9.770667 77.653333-42.112 117.333333a95.146667 95.146667 0 0 0-21.077333 54.186667c2.261333 19.84 9.813333 37.888 22.613333 50.517333z m172.288 0a29.44 29.44 0 0 1-2.261333 36.096 19.797333 19.797333 0 0 1-13.568 6.314667 19.029333 19.029333 0 0 1-14.250667-7.253333c-21.077333-21.632-33.877333-53.205333-34.645333-86.613334a146.602667 146.602667 0 0 1 34.645333-89.344c22.528-27.093333 33.066667-52.352 30.08-74.922666-3.754667-18.944-13.568-35.2-27.093333-45.098667-9.813333-7.253333-12.8-21.674667-7.509333-33.408 5.973333-11.733333 18.048-16.213333 28.586666-9.045333 24.832 18.090667 42.112 47.872 47.36 81.237333 4.522667 38.826667-9.770667 77.653333-42.112 117.333333a95.146667 95.146667 0 0 0-21.077333 54.186667c1.536 19.84 9.045333 37.888 21.845333 50.517333z m171.52 0a28.074667 28.074667 0 0 1 0 35.2 17.792 17.792 0 0 1-15.061333 8.106667l-0.768-0.896a19.029333 19.029333 0 0 1-14.293333-7.253333c-21.034667-21.632-33.834667-53.205333-34.56-86.613334a146.602667 146.602667 0 0 1 34.56-89.344c22.613333-27.093333 33.109333-52.352 30.848-74.922666-3.754667-18.944-13.525333-35.2-27.050667-45.098667-9.813333-7.253333-13.568-21.674667-7.552-34.304 6.016-11.733333 18.048-16.213333 28.586667-9.045333 24.832 18.048 42.154667 47.829333 47.402666 81.237333 4.522667 38.826667-9.813333 77.653333-42.112 117.333333a95.146667 95.146667 0 0 0-21.077333 54.144c0.768 20.778667 8.277333 38.826667 21.077333 51.456z m222.549334-591.274666c0 16.768-11.050667 30.208-24.021334 30.208h-92.8l-46.08 193.792c0 16.810667-11.050667 30.208-24.021333 30.208H294.186667c-13.653333 0-24.021333-13.397333-24.021334-30.208l-46.08-193.792h-93.44c-13.653333 0-24.021333-13.44-24.021333-30.208v-103.253334c0-16.725333 11.050667-30.165333 24.021333-30.165333h762.624c13.653333 0 24.021333 13.44 24.021334 30.208v103.210667z" fill="#1296db" p-id="23151"></path></svg>