<?xml version="1.0" encoding="utf-8"?>
<!-- Generator: Adobe Illustrator 22.0.0, SVG Export Plug-In . SVG Version: 6.00 Build 0)  -->
<svg version="1.1" id="图层_1" xmlns="http://www.w3.org/2000/svg" xmlns:xlink="http://www.w3.org/1999/xlink" x="0px" y="0px"
	 viewBox="0 0 25 25" style="enable-background:new 0 0 25 25;" xml:space="preserve">
<style type="text/css">
	.st0{fill:#FFFFFF;}
	.st1{fill:#0092CC;}
</style>
<circle class="st0" cx="12.5" cy="8.5" r="6.8"/>
<path class="st1" d="M12.5,0.2c-5,0-9.2,3.1-9.2,9.2s9.2,15.4,9.2,15.4s9.2-9.4,9.2-15.2S17.5,0.2,12.5,0.2z M12.5,15
	c-3.3,0-6-2.7-6-6s2.7-6.2,6-6.2s6,2.7,6,6S15.8,15,12.5,15z"/>
<path class="st1" d="M8.7,11.5c0,0.6,0.4,0.8,1,1c0.4,0,0.8,0,1.9,0h1.7c1,0,1.5,0,1.9,0c0.8-0.2,1-0.4,1-1l0,0c0-1.5-1-2.7-2.5-2.9
	l-0.2-0.2h0.2c0.6-0.4,1-1.3,1-2.1c0-1.2-1-2.3-2.3-2.3l0,0C11,4,10,5,10,6.2c0,0.8,0.4,1.7,1,2.1h0.2H11C9.8,8.7,8.7,10,8.7,11.5
	L8.7,11.5z M11,6.2c0-0.8,0.6-1.5,1.5-1.5l0,0c0.8,0,1.5,0.6,1.5,1.5s-0.6,1.5-1.5,1.5C11.7,7.7,11,7.1,11,6.2z M9.6,11.5
	c0-1,0.8-2.1,2.1-2.1h1.7c1,0,2.1,0.8,2.1,2.1l0,0l0,0h-0.2c-0.4,0-0.8,0-1.7,0h-1.9c-1,0-1.3,0-1.7,0C9.8,11.5,9.8,11.5,9.6,11.5
	L9.6,11.5L9.6,11.5z"/>
</svg>
