<?xml version="1.0" standalone="no"?><!DOCTYPE svg PUBLIC "-//W3C//DTD SVG 1.1//EN" "http://www.w3.org/Graphics/SVG/1.1/DTD/svg11.dtd"><svg t="1634719610145" class="icon" viewBox="0 0 1024 1024" version="1.1" xmlns="http://www.w3.org/2000/svg" p-id="7924" xmlns:xlink="http://www.w3.org/1999/xlink" width="200" height="200"><defs><style type="text/css"></style></defs><path d="M831.374222 570.140444a135.509333 135.509333 0 0 0-135.224889 135.224889c-0.113778 24.064 6.371556 47.616 18.773334 68.266667L583.111111 863.971556l-105.699555-154.510223-163.498667 111.559111a134.826667 134.826667 0 0 0-121.742222-76.515555c-3.072 0-6.257778 0-9.102223 0.455111a382.919111 382.919111 0 0 1 319.146667-168.96 289.450667 289.450667 0 1 0-120.035555-46.193778 445.667556 445.667556 0 0 0-296.732445 267.377778 133.916444 133.916444 0 0 0-28.444444 82.716444 135.168 135.168 0 0 0 269.994666 8.135112l134.144-91.704889L566.613333 950.613333l192.284445-131.242666a135.224889 135.224889 0 1 0 72.647111-249.173334h-0.170667zM316.245333 289.564444a226.872889 226.872889 0 1 1 453.688889-0.113777 226.872889 226.872889 0 0 1-453.688889 0.056889v0.056888zM192 952.547556a72.817778 72.817778 0 1 1 0-145.635556 72.817778 72.817778 0 0 1 0 145.635556z m639.317333-174.307556a72.817778 72.817778 0 1 1-0.113777-145.521778 72.817778 72.817778 0 0 1 0.170666 145.464889h-0.056889z" p-id="7925"></path></svg>