<?xml version="1.0" encoding="utf-8"?>
<!-- Generator: Adobe Illustrator 22.0.0, SVG Export Plug-In . SVG Version: 6.00 Build 0)  -->
<svg version="1.1" id="图层_1" xmlns="http://www.w3.org/2000/svg" xmlns:xlink="http://www.w3.org/1999/xlink" x="0px" y="0px"
	 viewBox="0 0 200 200" style="enable-background:new 0 0 200 200;" xml:space="preserve">
<path d="M95.8,37.4c28.7,0,52,23.3,52,52v36.5c0,3.4,1.2,6.7,3.2,9.4l12.5,16.7H28.1l12.5-16.7c2-2.7,3.2-6,3.2-9.4V89.5
	C43.8,60.7,67,37.5,95.8,37.4 M95.8,21.8c-37.4,0-67.7,30.3-67.7,67.7V126l-15.7,20.8v10.4c0,5.7,4.7,10.4,10.4,10.4h145.8
	c5.8,0,10.4-4.6,10.4-10.4v-10.4L163.4,126V89.5C163.5,52.1,133.1,21.8,95.8,21.8L95.8,21.8z M95.8,183.2c-8.6,0-15.6-7-15.6-15.7
	H64.5c0,17.2,14,31.2,31.2,31.2s31.2-14,31.2-31.2h-15.7C111.4,176.2,104.4,183.2,95.8,183.2z"/>
<path d="M95.8,37.4c-5.8,0.3-10.6-4.1-10.9-9.9s4.1-10.6,9.9-10.9c0.2,0,0.3,0,0.5,0c5.8,0,10.4,4.7,10.4,10.4
	C105.6,32.5,101.3,37.1,95.8,37.4h23.9c1.5-3.3,2.2-6.8,2.2-10.4c0-14.3-11.7-26.1-26-26.1S69.7,12.7,69.7,27
	c0,3.7,0.8,7.3,2.2,10.4H95.8L95.8,37.4z"/>
</svg>
