<?xml version="1.0" encoding="utf-8"?>
<!-- Generator: Adobe Illustrator 22.0.0, SVG Export Plug-In . SVG Version: 6.00 Build 0)  -->
<svg version="1.1" id="图层_1" xmlns="http://www.w3.org/2000/svg" xmlns:xlink="http://www.w3.org/1999/xlink" x="0px" y="0px"
	 viewBox="0 0 200 200" style="enable-background:new 0 0 200 200;" xml:space="preserve">
<style type="text/css">
	.st0{stroke:#000000;stroke-width:3;stroke-miterlimit:10;}
</style>
<title>check</title>
<path class="st0" d="M141,9.9c4,0,7.2,3.2,7.2,7.2c0,0,0,0,0,0v7h27.5c8,0,14.4,6.5,14.4,14.4v137.2c0,8-6.5,14.4-14.4,14.4H24.3
	c-8,0-14.4-6.5-14.4-14.4V38.5c0-8,6.5-14.4,14.4-14.4h28.8v-7c0-4,3.2-7.2,7.2-7.2s7.2,3.2,7.2,7.2c0,0,0,0,0,0v7h66.2v-7
	C133.8,13.1,137,9.9,141,9.9z M24.3,79.4v96.3h151.4v-96H26.5C25.8,79.7,25,79.6,24.3,79.4z M143.1,95.7c2.9,3,2.9,7.8,0,10.7
	L92.9,157c-2.9,2.9-7.7,3-10.6,0c0,0,0,0,0,0L57,131.8c-3-2.9-3-7.8-0.1-10.8c0.9-1,2.1-1.7,3.4-2c2.6-0.7,5.4,0.1,7.3,2l19.9,19.9
	l44.9-45.2C135.3,92.7,140.1,92.7,143.1,95.7C143,95.7,143.1,95.7,143.1,95.7L143.1,95.7z M53.1,38.5H24.3v27.2
	c0.7-0.2,1.5-0.4,2.3-0.4h149.1V38.5h-27.5v7c0,4-3.2,7.2-7.2,7.2c-4,0-7.2-3.2-7.2-7.2v-7H67.6v7c0,4-3.2,7.2-7.2,7.2
	c-4,0-7.2-3.2-7.2-7.2V38.5z"/>
</svg>
