<?xml version="1.0" encoding="utf-8"?>
<!-- Generator: Adobe Illustrator 22.0.0, SVG Export Plug-In . SVG Version: 6.00 Build 0)  -->
<svg version="1.1" id="图层_1" xmlns="http://www.w3.org/2000/svg" xmlns:xlink="http://www.w3.org/1999/xlink" x="0px" y="0px"
	 viewBox="0 0 200 200" style="enable-background:new 0 0 200 200;" xml:space="preserve">
<g>
	<path d="M65.9,57.9h62.3c1.6,0,3-1.3,3-3V48c0-1.6-1.3-3-3-3H65.9c-1.6,0-3,1.3-3,3V55C63,56.6,64.3,57.9,65.9,57.9z"/>
	<path d="M152.5,17.4H41.7c-3.5,0-6.4,2.9-6.4,6.4v152.4c0,3.5,2.9,6.4,6.4,6.4h54.9v-12.9H48.1V30.2h98v55.4H159V23.8
		C159,20.3,156.1,17.4,152.5,17.4z"/>
	<path d="M117.9,182.6C117.9,182.6,117.9,182.6,117.9,182.6c1.7,0,3.3-0.7,4.5-1.9c1.2-1.2,1.9-2.8,1.9-4.5
		c0-11.7,9.5-21.3,21.3-21.3s21.3,9.5,21.3,21.3l0,0.8c0.4,3.2,3.1,5.6,6.4,5.6c0,0,0,0,0,0c3.5,0,6.4-2.9,6.4-6.4
		c0-11.4-5.6-21.9-15-28.3l-0.5-0.3l0.4-0.4c5.2-5.1,8.2-12.2,8.2-19.4s-2.8-14.1-8-19.2c-5.1-5.1-12-8-19.2-8c0,0,0,0,0,0
		c-7.3,0-14.3,3-19.4,8.2c-10.5,10.7-10.3,28,0.4,38.5l0.4,0.4l-0.5,0.3c-9.4,6.4-15,16.9-15,28.3
		C111.5,179.7,114.3,182.6,117.9,182.6z M145.6,113.4c7.9,0,14.4,6.4,14.4,14.4c0,7.9-6.4,14.4-14.4,14.4c-7.9,0-14.4-6.4-14.4-14.4
		C131.2,119.8,137.7,113.4,145.6,113.4z"/>
	<path d="M103.5,82.7v-6.9c0-1.6-1.3-3-3-3H65.9c-1.6,0-3,1.3-3,3v6.9c0,1.6,1.3,3,3,3h34.6C102.2,85.6,103.5,84.3,103.5,82.7z"/>
</g>
</svg>
