<?xml version="1.0" encoding="utf-8"?>
<!-- Generator: Adobe Illustrator 22.0.0, SVG Export Plug-In . SVG Version: 6.00 Build 0)  -->
<svg version="1.1" id="图层_1" xmlns="http://www.w3.org/2000/svg" xmlns:xlink="http://www.w3.org/1999/xlink" x="0px" y="0px"
	 viewBox="0 0 25 25" style="enable-background:new 0 0 25 25;" xml:space="preserve">
<g>
	<path d="M10.2,14.5h4.6c0.6,0,1-0.4,1-1s-0.4-1-1-1h-4.6c-0.6,0-1,0.4-1,1S9.6,14.5,10.2,14.5z"/>
	<path d="M14.8,7.9h-4.6c-0.6,0-1,0.4-1,1s0.4,1,1,1h4.6c0.6,0,1-0.4,1-1S15.4,7.9,14.8,7.9z"/>
	<path d="M19.4,2.3H5.6c-1.2,0-2.2,1-2.2,2.2v17.2c0,0.6,0.5,1,1,1c0.1,0,0.3,0,0.4-0.1l0,0l7-3.4C12,19,12.3,19,12.4,19
		s0.4,0,0.5,0.1l7,3.4c0.3,0.1,0.5,0.1,0.6,0.1c0.5,0,1-0.4,1-1V4.5C21.6,3.3,20.6,2.3,19.4,2.3z M19.5,20l-5.5-2.7
		c-0.4-0.2-1-0.3-1.4-0.3s-1,0.1-1.4,0.3L5.5,20V4.4h14V20z"/>
</g>
</svg>
