<?xml version="1.0" encoding="utf-8"?>
<!-- Generator: Adobe Illustrator 22.0.0, SVG Export Plug-In . SVG Version: 6.00 Build 0)  -->
<svg version="1.1" id="图层_1" xmlns="http://www.w3.org/2000/svg" xmlns:xlink="http://www.w3.org/1999/xlink" x="0px" y="0px"
	 viewBox="0 0 25 25" style="enable-background:new 0 0 25 25;" xml:space="preserve">
<style type="text/css">
	.st0{fill:#9D9A98;}
	.st1{fill:none;stroke:#9D9A98;stroke-width:1.6;stroke-linecap:round;stroke-linejoin:round;stroke-miterlimit:10;}
</style>
<path class="st0" d="M21.3,4.8v11.5H3.7V4.8H21.3 M21.3,3H3.7c-1,0-1.8,0.8-1.8,1.8v11.5c0,1,0.8,1.8,1.8,1.8h17.6
	c1,0,1.8-0.8,1.8-1.8V4.8C23.1,3.8,22.3,3,21.3,3z M16.9,21.8H8.1c-0.5,0-0.9-0.4-0.9-0.9S7.6,20,8.1,20h8.8c0.5,0,0.9,0.4,0.9,0.9
	C17.8,21.5,17.4,21.8,16.9,21.8z"/>
<g>
	<polyline class="st1" points="15.8,11.3 12.5,14.1 9.2,11.3 	"/>
	<line class="st1" x1="12.5" y1="13.8" x2="12.5" y2="7"/>
</g>
</svg>
