<?xml version="1.0" encoding="utf-8"?>
<!-- Generator: Adobe Illustrator 22.0.0, SVG Export Plug-In . SVG Version: 6.00 Build 0)  -->
<svg version="1.1" id="图层_1" xmlns="http://www.w3.org/2000/svg" xmlns:xlink="http://www.w3.org/1999/xlink" x="0px" y="0px"
	 viewBox="0 0 25 25" style="enable-background:new 0 0 25 25;" xml:space="preserve">
<style type="text/css">
	.st0{fill:#9D9A98;}
</style>
<path class="st0" d="M21.3,4.8v11.5H3.7V4.8L21.3,4.8 M21.3,3H3.7c-1,0-1.8,0.8-1.8,1.8v11.5c0,1,0.8,1.8,1.8,1.8h17.6
	c1,0,1.8-0.8,1.8-1.8V4.8C23.1,3.8,22.3,3,21.3,3z M16.9,21.8H8.1c-0.5,0-0.9-0.4-0.9-0.9c0-0.5,0.4-0.9,0.9-0.9h8.8
	c0.5,0,0.9,0.4,0.9,0.9C17.8,21.5,17.4,21.8,16.9,21.8z"/>
<path class="st0" d="M12.9,14.3c-0.4,0-0.7-0.1-1-0.3l-3.4-2.3l-2.1,2.1c-0.4,0.4-0.9,0.4-1.2,0s-0.4-0.9,0-1.2l2.2-2.2
	c0.5-0.6,1.4-0.7,2-0.3l3.5,2.4l5.3-5.3c0.4-0.4,0.9-0.4,1.2,0c0.4,0.4,0.4,0.9,0,1.2l-5.4,5.4C13.8,14.2,13.4,14.3,12.9,14.3z"/>
</svg>
