<?xml version="1.0" encoding="utf-8"?>
<!-- Generator: Adobe Illustrator 22.0.0, SVG Export Plug-In . SVG Version: 6.00 Build 0)  -->
<svg version="1.1" id="图层_1" xmlns="http://www.w3.org/2000/svg" xmlns:xlink="http://www.w3.org/1999/xlink" x="0px" y="0px"
	 viewBox="0 0 200 200" style="enable-background:new 0 0 200 200;" xml:space="preserve">
<style type="text/css">
	.st0{fill:#3D7FFF;}
</style>
<path class="st0" d="M128.6,97.3c0-1.6-0.6-3.2-1.8-4.3c-1.1-1.1-2.7-1.8-4.3-1.8c0,0,0,0,0,0h0c0,0,0,0,0,0c-1.1,0-2.2,0.3-3.1,0.9
	l-1.9,1.1l-20,20l-1,0.1c-0.2,0-0.4,0-0.5,0c-0.1,0-0.2,0-0.3,0l-0.2,0c-5.9,0-10.6,4.8-10.7,10.6c0,5.9,4.8,10.7,10.7,10.7
	c2.9,0,5.5-1.1,7.6-3.1c2-2,3.1-4.6,3.1-7.4l0-0.3c0-0.2,0-0.4,0-0.6l0-1.1l20.6-20.5C127.9,100.4,128.6,98.9,128.6,97.3z"/>
<path class="st0" d="M177.2,170c20.8-31.3,20.6-71.7-0.6-102.9l0,0c-17.9-26.5-47.2-40.8-77-40.8c-17.8,0-35.9,5.1-51.7,15.8
	C5.6,70.7-5.6,128.4,23,170.8c1,1.4,2.6,2.3,4.4,2.4l0.5,0.1c3-0.1,5.4-2.6,5.4-5.7c0-0.9-0.3-1.9-0.7-2.7l-0.2-0.4
	c-8.1-12-12.9-25.9-13.8-40.3l-0.2-2.7l11.3,0c3-0.2,5.4-2.7,5.6-5.7c0.2-3.4-2.3-6.3-5.7-6.5H18.8l0.4-2.9c1.9-12.7,7-25,14.5-35.4
	l1.7-2.4l6.7,6.7c2.3,1.9,5.7,1.9,7.9,0c2.5-2.2,2.8-6,0.6-8.7l-6.9-7l2-1.8c12.7-11.2,28.3-18.2,45.1-20.1l2.9-0.3l-0.1,3.1l0,10.8
	c0.2,3,2.7,5.4,5.7,5.6c1.6,0.1,3.2-0.4,4.4-1.5c1.2-1.1,2-2.6,2.1-4.2l0-10.9l-0.1-2.9l2.9,0.3c16.7,1.9,32.2,8.7,44.8,19.7l2,1.8
	l-7.3,7.3c-1.9,2.3-1.9,5.6,0.1,7.9c1.1,1.2,2.5,2,4.2,2.1c1.6,0.1,3.2-0.4,4.4-1.5l0.1-0.1l6.9-6.8l1.7,2.3
	c7.7,10.5,12.9,22.8,14.9,35.6l0.4,2.9l-11.2,0c-3,0.3-5.4,2.6-5.6,5.7c-0.2,3.3,2.3,6.3,5.6,6.5l11.6,0l-0.2,2.7
	c-0.9,14.2-5.5,27.9-13.4,39.8c-0.8,1.2-1,2.7-0.7,4.2c0.3,1.5,1.2,2.7,2.5,3.5c1.2,0.7,2.6,1,3.9,0.8
	C175,172,176.4,171.2,177.2,170z"/>
</svg>
