<?xml version="1.0" encoding="utf-8"?>
<!-- Generator: Adobe Illustrator 22.0.0, SVG Export Plug-In . SVG Version: 6.00 Build 0)  -->
<svg version="1.1" id="图层_1" xmlns="http://www.w3.org/2000/svg" xmlns:xlink="http://www.w3.org/1999/xlink" x="0px" y="0px"
	 viewBox="0 0 25 25" style="enable-background:new 0 0 25 25;" xml:space="preserve">
<style type="text/css">
	.st0{stroke:#000000;stroke-width:0.5;stroke-miterlimit:10;}
</style>
<path d="M12.5,24.3c-0.2,0-0.5-0.1-0.6-0.2l-6.2-6.2C2,14.2,2,8.1,5.7,4.4s9.8-3.7,13.5,0s3.7,9.8,0,13.5l-6.1,6.2
	C13,24.3,12.7,24.3,12.5,24.3z M12.5,3.3c-4.4,0-7.9,3.6-7.9,7.9c0,2.1,0.8,4.1,2.3,5.6l5.6,5.6l5.6-5.6c3.1-3.1,3.1-8.2,0-11.3
	C16.6,4.1,14.6,3.3,12.5,3.3z"/>
<path class="st0" d="M17.2,9.8L12.7,6c-0.1-0.1-0.2-0.1-0.3,0L7.8,9.8c-0.1,0.1-0.1,0.3,0,0.5l0,0c0.1,0.1,0.2,0.1,0.3,0v4.9
	c0,0.2,0.2,0.5,0.5,0.5h2.6c0.2,0,0.5-0.2,0.5-0.5v-1.7h1.7v1.7c0,0.2,0.2,0.5,0.5,0.5h2.6c0.2,0,0.3-0.2,0.3-0.5v-4.9
	c0.1,0.1,0.3,0,0.3-0.1l0,0C17.3,10.1,17.3,10,17.2,9.8L17.2,9.8L17.2,9.8z M16.2,15H14v-1.7c0-0.2-0.2-0.3-0.5-0.5h-2.2
	c-0.2,0-0.5,0.2-0.5,0.5V15H8.8V9.8l3.7-3.1l3.7,3.1V15z"/>
</svg>
