<?xml version="1.0" encoding="utf-8"?>
<!-- Generator: Adobe Illustrator 22.0.0, SVG Export Plug-In . SVG Version: 6.00 Build 0)  -->
<svg version="1.1" id="图层_1" xmlns="http://www.w3.org/2000/svg" xmlns:xlink="http://www.w3.org/1999/xlink" x="0px" y="0px"
	 viewBox="0 0 25 25" style="enable-background:new 0 0 25 25;" xml:space="preserve">
<style type="text/css">
	.st0{fill:#47444F;}
</style>
<path class="st0" d="M7.5,6.9h9.3v1.6H7.5V6.9z M7.5,11.7h9.3v1.6H7.5V11.7z M7.5,16.5h9.3v1.6H7.5V16.5z"/>
<path class="st0" d="M23.7,12.5c0-1.5-1-2.7-2.3-3.1V4.5c0-1.3-1-2.4-2.3-2.4H5.2c-1.3,0-2.3,1.1-2.3,2.4v4H1.3v1.6h1.5v4.8H1.3v1.6
	h1.5v4c0,1.3,1,2.4,2.3,2.4h13.9c1.3,0,2.3-1.1,2.3-2.4v-4.9C22.7,15.2,23.7,14,23.7,12.5z M19.1,21.3H5.2c-0.4,0-0.8-0.4-0.8-0.8
	v-4h1.5v-1.6H4.4v-4.8h1.5V8.5H4.4v-4c0-0.4,0.3-0.8,0.8-0.8h13.9c0.4,0,0.8,0.4,0.8,0.8v4.9c-1.3,0.4-2.3,1.6-2.3,3.1
	s1,2.7,2.3,3.1v4.9C19.8,20.9,19.5,21.3,19.1,21.3z M20.6,14.1c-0.9,0-1.5-0.7-1.5-1.6s0.7-1.6,1.5-1.6c0.9,0,1.5,0.7,1.5,1.6
	S21.5,14.1,20.6,14.1z"/>
</svg>
