<?xml version="1.0" standalone="no"?><!DOCTYPE svg PUBLIC "-//W3C//DTD SVG 1.1//EN" "http://www.w3.org/Graphics/SVG/1.1/DTD/svg11.dtd"><svg t="1615443580562" class="icon" viewBox="0 0 1024 1024" version="1.1" xmlns="http://www.w3.org/2000/svg" p-id="9639" xmlns:xlink="http://www.w3.org/1999/xlink" width="200" height="200"><defs><style type="text/css"></style></defs><path d="M358.065416 472.050126c-58.668548-29.100782-97.862781-93.321432-97.862781-168.93455 0-102.749152 75.444294-186.04423 168.508596-186.04423 93.066349 0 168.510643 83.294055 168.510643 186.04423 0 75.396177-39.082688 139.512451-97.480049 168.736029 144.447635 34.715663 253.83741 173.11578 260.997776 341.046466l-663.803973 0.481977C106.108921 647.64026 214.91334 507.412518 358.065416 472.050126zM568.80452 138.600685c38.816618 41.537022 62.941027 99.709933 62.941027 164.105568 0 59.481719-20.584648 113.65555-54.316249 154.313551l0.005117 0.001023c105.026218 49.877991 184.421659 152.995533 210.30418 278.58181l0-0.00614 150.093446-0.107447c-6.364202-149.248186-103.584321-272.251637-231.963343-303.106366 51.900124-25.970488 86.634606-82.95534 86.634606-149.962453 0-91.317799-67.050793-165.346839-149.763928-165.346839-27.557742 0-53.378862 8.218172-75.559932 22.555715" p-id="9640"></path></svg>