<?xml version="1.0" encoding="utf-8"?>
<!-- Generator: Adobe Illustrator 22.0.0, SVG Export Plug-In . SVG Version: 6.00 Build 0)  -->
<svg version="1.1" id="图层_1" xmlns="http://www.w3.org/2000/svg" xmlns:xlink="http://www.w3.org/1999/xlink" x="0px" y="0px"
	 viewBox="0 0 32 32" style="enable-background:new 0 0 32 32;" xml:space="preserve">
<style type="text/css">
	.st0{fill:#333333;stroke:#333333;stroke-width:0.3;stroke-miterlimit:10;}
	.st1{fill:none;stroke:#333333;stroke-width:1.4;stroke-linecap:round;stroke-linejoin:round;stroke-miterlimit:10;}
</style>
<path class="st0" d="M10.4,1.1c0.5,0,0.9,0.4,0.9,0.9l0,0l0,0.3h15.8c0.7,0,1.2,0.5,1.2,1.2l0,0c0,0.3-0.1,0.6-0.3,0.8L24.3,9
	c-0.1,0.1-0.1,0.3,0,0.4l3.8,4.6c0.4,0.5,0.3,1.3-0.2,1.7c-0.2,0.2-0.5,0.3-0.8,0.3H11.3v10h1.4c0.5,0,0.9,0.4,0.9,0.9
	c0,0.5-0.4,0.9-0.9,0.9l0,0H8.2c-0.5,0-0.9-0.4-0.9-0.9c0-0.5,0.4-0.9,0.9-0.9l0,0h1.4V2C9.6,1.5,10,1.1,10.4,1.1z M26,4.1H11.3
	v10.2H26l-3-3.7c-0.6-0.8-0.6-1.9,0-2.6l0,0L26,4.1L26,4.1z"/>
<path class="st1" d="M15.2,25.3c1.9,0.4,3.2,1.2,3.2,2c0,1.4-3.5,2.5-7.8,2.5s-7.8-1.1-7.8-2.5c0-1,1.7-1.8,4.3-2.2"/>
</svg>
