<?xml version="1.0" encoding="utf-8"?>
<!-- Generator: Adobe Illustrator 22.0.0, SVG Export Plug-In . SVG Version: 6.00 Build 0)  -->
<svg version="1.1" id="图层_1" xmlns="http://www.w3.org/2000/svg" xmlns:xlink="http://www.w3.org/1999/xlink" x="0px" y="0px"
	 viewBox="0 0 200 200" style="enable-background:new 0 0 200 200;" xml:space="preserve">
<style type="text/css">
	.st0{fill:#666666;}
</style>
<path class="st0" d="M17.6,161.4h164.6c9.1,0,16.5,7.1,16.5,15.7c0,8.6-7.4,15.7-16.5,15.7H17.7c-9.1,0-16.5-7.1-16.5-15.7
	C1.2,168.5,8.6,161.4,17.6,161.4z M17.6,84.4h163.6c9.1,0,16.5,7.1,16.5,15.7s-7.4,15.7-16.5,15.7H17.6c-9.1,0-16.5-7.1-16.5-15.7
	S8.6,84.4,17.6,84.4z M17.6,6.1h164.6c9.1,0,16.5,7.1,16.5,15.7s-7.4,15.7-16.5,15.7H17.7c-9.1,0-16.5-7.1-16.5-15.7
	C1.2,13.1,8.6,6.1,17.6,6.1z"/>
</svg>
