<?xml version="1.0" encoding="utf-8"?>
<!-- Generator: Adobe Illustrator 22.0.0, SVG Export Plug-In . SVG Version: 6.00 Build 0)  -->
<svg version="1.1" id="图层_1" xmlns="http://www.w3.org/2000/svg" xmlns:xlink="http://www.w3.org/1999/xlink" x="0px" y="0px"
	 viewBox="0 0 200 200" style="enable-background:new 0 0 200 200;" xml:space="preserve">
<style type="text/css">
	.st0{fill:#5ABE64;}
	.st1{fill:#5ABE64;stroke:#5ABE64;stroke-width:4;stroke-miterlimit:10;}
	.st2{fill:#5ABE64;stroke:#5ABE64;stroke-width:0.25;stroke-miterlimit:10;}
</style>
<g>
	<path class="st0" d="M100,26.7c40.4,0,73.3,32.9,73.3,73.3s-32.9,73.3-73.3,73.3S26.7,140.4,26.7,100S59.6,26.7,100,26.7 M100,8.7
		C49.6,8.7,8.7,49.6,8.7,100s40.9,91.3,91.3,91.3s91.3-40.9,91.3-91.3S150.4,8.7,100,8.7L100,8.7z"/>
</g>
<path class="st1" d="M100,116.4L100,116.4c-3.7,0-6.8-3.1-6.8-6.8V47.4c0-3.7,3.1-6.8,6.8-6.8h0c3.7,0,6.8,3.1,6.8,6.8v62.2
	C106.8,113.3,103.7,116.4,100,116.4z"/>
<path class="st2" d="M100,158.2L100,158.2c-5.6,0-10.2-4.6-10.2-10.2v0c0-5.6,4.6-10.2,10.2-10.2h0c5.6,0,10.2,4.6,10.2,10.2v0
	C110.2,153.6,105.6,158.2,100,158.2z"/>
</svg>
