<?xml version="1.0" encoding="utf-8"?>
<!-- Generator: Adobe Illustrator 22.0.0, SVG Export Plug-In . SVG Version: 6.00 Build 0)  -->
<svg version="1.1" id="图层_1" xmlns="http://www.w3.org/2000/svg" xmlns:xlink="http://www.w3.org/1999/xlink" x="0px" y="0px"
	 viewBox="0 0 25 25" style="enable-background:new 0 0 25 25;" xml:space="preserve">
<path d="M1.6,3.1v17.2h21.9V3.1H1.6z M21.9,18.8H3.1V4.7h18.8V18.8z"/>
<rect x="4.7" y="21.9" width="15.6" height="1.6"/>
<g>
	<g>
		<path d="M5,7h2.1l3.4,7.1l-0.2,0.2V7h1.7v9.2H10l-3.4-7l0.2-0.2v7.1H5V7z"/>
		<path d="M16.4,16.3c0,0-0.2,0-0.6-0.1s-0.8-0.2-1.2-0.4c-0.4-0.2-0.7-0.4-1-0.6l0.8-1.4c0.4,0.3,0.8,0.5,1.2,0.7
			c0.5,0.2,0.9,0.2,1.4,0.2c0.6,0,1-0.1,1.3-0.3c0.3-0.2,0.5-0.5,0.5-0.8v0c0-0.2-0.1-0.4-0.2-0.6s-0.3-0.2-0.5-0.3
			s-0.5-0.1-0.9-0.2c0,0,0,0,0,0s0,0,0,0l-0.1,0c-0.6-0.1-1.1-0.2-1.5-0.4c-0.4-0.1-0.8-0.4-1-0.8C14.1,11,14,10.4,14,9.8v0
			c0-0.6,0.1-1.1,0.4-1.5s0.7-0.7,1.2-1c0.5-0.2,1.1-0.3,1.8-0.3c0.3,0,0.7,0,1,0.1s0.7,0.2,1,0.3s0.6,0.3,0.9,0.5l-0.7,1.5
			c-0.4-0.2-0.7-0.4-1.1-0.6c-0.4-0.1-0.8-0.2-1.1-0.2c-0.5,0-0.9,0.1-1.2,0.3c-0.3,0.2-0.4,0.4-0.4,0.7v0c0,0.3,0.1,0.5,0.2,0.6
			c0.2,0.2,0.3,0.3,0.6,0.3s0.5,0.1,0.9,0.2c0,0,0,0,0.1,0c0,0,0,0,0.1,0c0,0,0,0,0.1,0c0,0,0,0,0.1,0c0.6,0.1,1.1,0.3,1.5,0.4
			c0.4,0.2,0.7,0.4,1,0.8c0.3,0.4,0.4,0.9,0.4,1.5v0c0,0.6-0.1,1.1-0.4,1.5s-0.7,0.7-1.2,1c-0.5,0.2-1.2,0.3-1.9,0.3
			C16.6,16.3,16.4,16.3,16.4,16.3z"/>
	</g>
</g>
</svg>
