<?xml version="1.0" encoding="utf-8"?>
<!-- Generator: Adobe Illustrator 22.0.0, SVG Export Plug-In . SVG Version: 6.00 Build 0)  -->
<svg version="1.1" id="图层_1" xmlns="http://www.w3.org/2000/svg" xmlns:xlink="http://www.w3.org/1999/xlink" x="0px" y="0px"
	 viewBox="0 0 25 25" style="enable-background:new 0 0 25 25;" xml:space="preserve">
<path d="M7.7,9.3h9.6C17.7,9.3,18,9,18,8.6s-0.3-0.7-0.7-0.7H7.7C7.3,7.9,7,8.2,7,8.6S7.4,9.3,7.7,9.3z M17.4,12.1H7.7
	c-0.4,0-0.7,0.3-0.7,0.7s0.3,0.7,0.7,0.7h9.6c0.4,0,0.7-0.3,0.7-0.7C18,12.4,17.7,12.1,17.4,12.1z M17.4,16.2H7.7
	c-0.4,0-0.7,0.3-0.7,0.7s0.3,0.7,0.7,0.7h9.6c0.4,0,0.7-0.3,0.7-0.7S17.7,16.2,17.4,16.2z M10.5,5.2H14c0.6,0,1-0.5,1-1s-0.5-1-1-1
	h-3.4c-0.6,0-1,0.5-1,1S9.9,5.2,10.5,5.2z"/>
<path d="M19.3,3.8h-0.7c-0.4,0-0.7,0.3-0.7,0.7s0.3,0.7,0.7,0.7h0.7c0.8,0,1.4,0.6,1.4,1.4v13.1c0,0.7-0.6,1.4-1.4,1.4H5.6
	c-0.7,0-1.4-0.6-1.4-1.4V6.6c0-0.7,0.6-1.4,1.4-1.4h0.7C6.7,5.2,7,4.9,7,4.5S6.7,3.8,6.3,3.8H5.6c-1.5,0-2.7,1.3-2.7,2.8v13.1
	c0,1.5,1.2,2.8,2.8,2.8h13.7c1.5,0,2.8-1.2,2.8-2.8V6.6C22.1,5.1,20.9,3.8,19.3,3.8z"/>
<path d="M7.7,9.3h9.6C17.7,9.3,18,9,18,8.6s-0.3-0.7-0.7-0.7H7.7C7.3,7.9,7,8.2,7,8.6S7.4,9.3,7.7,9.3z M17.4,12.1H7.7
	c-0.4,0-0.7,0.3-0.7,0.7s0.3,0.7,0.7,0.7h9.6c0.4,0,0.7-0.3,0.7-0.7C18,12.4,17.7,12.1,17.4,12.1z M17.4,16.2H7.7
	c-0.4,0-0.7,0.3-0.7,0.7s0.3,0.7,0.7,0.7h9.6c0.4,0,0.7-0.3,0.7-0.7S17.7,16.2,17.4,16.2z M10.5,5.2H14c0.6,0,1-0.5,1-1s-0.5-1-1-1
	h-3.4c-0.6,0-1,0.5-1,1S9.9,5.2,10.5,5.2z"/>
<path d="M19.3,3.8h-0.7c-0.4,0-0.7,0.3-0.7,0.7s0.3,0.7,0.7,0.7h0.7c0.8,0,1.4,0.6,1.4,1.4v13.1c0,0.7-0.6,1.4-1.4,1.4H5.6
	c-0.7,0-1.4-0.6-1.4-1.4V6.6c0-0.7,0.6-1.4,1.4-1.4h0.7C6.7,5.2,7,4.9,7,4.5S6.7,3.8,6.3,3.8H5.6c-1.5,0-2.7,1.3-2.7,2.8v13.1
	c0,1.5,1.2,2.8,2.8,2.8h13.7c1.5,0,2.8-1.2,2.8-2.8V6.6C22.1,5.1,20.9,3.8,19.3,3.8z"/>
</svg>
