<?xml version="1.0" encoding="utf-8"?>
<!-- Generator: Adobe Illustrator 22.0.0, SVG Export Plug-In . SVG Version: 6.00 Build 0)  -->
<svg version="1.1" id="图层_1" xmlns="http://www.w3.org/2000/svg" xmlns:xlink="http://www.w3.org/1999/xlink" x="0px" y="0px"
	 viewBox="0 0 25 25" style="enable-background:new 0 0 25 25;" xml:space="preserve">
<style type="text/css">
	.st0{stroke:#000000;stroke-width:0.3;stroke-miterlimit:10;}
</style>
<g>
	<path class="st0" d="M12,4.9c0.1-0.2,0.5-0.4,0.7-0.2c0.1,0,0.2,0.1,0.2,0.2l0,0l3.2,7.6c0.1,0.2,0,0.5-0.2,0.7l0,0l-2.4,1.3
		c-0.1,0.1-0.2,0-0.4-0.1s0-0.2,0.1-0.4l0,0l2.4-1.3l-3.2-7.6l-3.2,7.6l3.3,1.8c0.1,0.1,0.2,0.2,0.1,0.4C12.6,15,12.5,15,12.4,15
		l0,0l-3.3-1.8c-0.2-0.1-0.4-0.4-0.2-0.6l0,0L12,4.9L12,4.9z"/>
	<path class="st0" d="M10.4,16.5c-0.1,0-0.2-0.1-0.2-0.2s0.1-0.2,0.2-0.2l0,0h1.9v-2.5l-1.2-0.7l0,0c-0.1-0.1-0.1-0.2,0-0.4
		s0.2-0.1,0.4-0.1l1,0.6v-2c0-0.1,0.1-0.2,0.2-0.2c0.1,0,0.2,0.1,0.2,0.2l0,0v0.8l0.5-0.4c0.1-0.1,0.2,0,0.4,0.1s0.1,0.2,0,0.4l0,0
		l-0.8,0.6l0,0v3.4h1.9c0.1,0,0.2,0.1,0.2,0.2s-0.1,0.2-0.2,0.2l0,0L10.4,16.5L10.4,16.5z"/>
</g>
<path d="M12.6,23.8c-0.2,0-0.5-0.1-0.6-0.2l-6.2-6.2c-3.7-3.7-3.7-9.8,0-13.5s9.8-3.7,13.5,0s3.7,9.8,0,13.5l-6.1,6.2
	C13,23.8,12.8,23.8,12.6,23.8z M12.6,2.8c-4.4,0-7.9,3.6-7.9,7.9c0,2.1,0.8,4.1,2.3,5.6l5.6,5.6l5.6-5.6c3.1-3.1,3.1-8.2,0-11.3
	C16.7,3.6,14.6,2.8,12.6,2.8z"/>
</svg>
