<?xml version="1.0" standalone="no"?><!DOCTYPE svg PUBLIC "-//W3C//DTD SVG 1.1//EN" "http://www.w3.org/Graphics/SVG/1.1/DTD/svg11.dtd"><svg t="1668406189445" class="icon" viewBox="0 0 1037 1024" version="1.1" xmlns="http://www.w3.org/2000/svg" p-id="2692" xmlns:xlink="http://www.w3.org/1999/xlink" width="202.5390625" height="200"><path d="M931.169833 990.329813H283.166607c-12.331971 0-22.32031-9.988339-22.32031-22.320309s9.988339-22.32031 22.32031-22.32031h648.003226c15.579576 0 28.257512-12.677936 28.257512-28.257512s-12.677936-28.257512-28.257512-28.257512H105.217939c-39.741311 0-72.072279-32.330968-72.072279-72.072279s32.330968-72.072279 72.072279-72.07228h180.906109c12.331971 0 22.32031 9.988339 22.320309 22.32031s-9.988339 22.32031-22.320309 22.32031H105.217939c-15.12201 0-27.43166 12.309651-27.43166 27.43166s12.309651 27.43166 27.43166 27.43166h825.951894c40.198877 0 72.898131 32.699253 72.898131 72.898131s-32.699253 72.898131-72.898131 72.898131zM522.027399 812.369985c16.517029-0.334805 31.326554-9.084366 39.596229-23.380524 31.237273-53.959348 87.607215-150.572808 114.101422-191.296213 25.300071-38.893139 51.671517-81.100845 73.232936-126.21019 27.565582-57.698 40.968928-106.914283 40.968928-150.472366 0-73.723982-28.09011-143.062024-79.080857-195.246908-51.135829-52.318806-119.145812-81.134325-191.530576-81.134325h-4.743065c-72.373604 0-140.394747 28.81552-191.530576 81.134325-50.990747 52.184884-79.080857 121.522925-79.080857 195.246908 0 43.558084 13.403346 92.785527 40.968928 150.472366 21.561419 45.109346 47.944025 87.317051 73.232936 126.21019 26.795532 41.203291 88.756711 138.575642 123.30855 192.947916 8.6826 13.67119 23.402845 21.739981 39.540428 21.739981h0.993254z m-2.700757-723.111067c124.603128 0 225.970814 103.956842 225.970813 231.740613 0 87.863898-72.262002 198.963239-106.992404 252.35342-27.041055 41.571576-83.857403 138.932767-115.317879 193.27156-0.189723 0.323644-0.636129 1.093695-1.886066 1.116015h-0.066961c-1.216457 0-1.674023-0.72541-1.874906-1.037894-34.59648-54.450395-96.6581-151.978988-123.565233-193.349681-34.730402-53.39018-106.992404-164.478361-106.992404-252.35342 0-127.783772 101.367686-231.740614 225.970814-231.740613h4.743065z m137.693989 496.258601z m3.415007-291.960808c0-79.114337-64.360613-143.47495-143.474949-143.47495s-143.47495 64.360613-143.47495 143.47495S437.846352 437.03166 516.960689 437.03166s143.47495-64.360613 143.474949-143.474949z m-44.640619 0c0 54.495036-44.339295 98.834331-98.83433 98.83433s-98.834331-44.339295-98.834331-98.83433 44.339295-98.834331 98.834331-98.834331 98.834331 44.339295 98.83433 98.834331z" p-id="2693"></path></svg>