<?xml version="1.0" encoding="utf-8"?>
<!-- Generator: Adobe Illustrator 22.0.0, SVG Export Plug-In . SVG Version: 6.00 Build 0)  -->
<svg version="1.1" id="图层_1" xmlns="http://www.w3.org/2000/svg" xmlns:xlink="http://www.w3.org/1999/xlink" x="0px" y="0px"
	 viewBox="0 0 25 25" style="enable-background:new 0 0 25 25;" xml:space="preserve">
<path d="M17.6,9.7c0.2,0,0.3,0,0.5,0l1,0c0,0,0,0,0,0V8.9c0-1.1,0-2.1,0-3.2c0-0.5-0.2-1-0.5-1.4c-0.4-0.5-0.9-0.9-1.7-1.3
	c-1.2-0.6-2.6-1-4.5-1.2c-0.3,0-0.6-0.1-0.9-0.1H9.6l-0.4,0c-0.3,0-0.6,0.1-1,0.1C6.6,2,5.3,2.4,4.2,2.9C3.6,3.2,3,3.6,2.6,4.3
	C2.4,4.5,2.3,4.8,2.2,5c0,0.1-0.1,0.2-0.1,0.3v13c0.1,0.4,0.2,0.8,0.4,1.1c0.4,0.6,1,1.1,1.9,1.5C5.7,21.5,7,21.8,8.9,22
	c0.2,0,0.3,0,0.5,0l0.2,0l0-0.4c0-0.4,0-0.9,0-1.3c0-0.1,0-0.2-0.1-0.2c-1.5-0.1-2.8-0.4-4-0.8c-0.5-0.2-0.9-0.5-1.2-0.7
	c-0.2-0.1-0.4-0.4-0.4-0.6c0-0.3,0-0.7,0-1c0-0.1,0-0.3,0-0.4v-0.2l0.1,0.1c1.9,1,4,1.3,5.6,1.4v-1.9c-1.2-0.1-2.2-0.2-3.2-0.5
	c-0.7-0.2-1.4-0.5-2-0.9c-0.2-0.1-0.4-0.3-0.5-0.6c0-0.3,0-0.7,0-1.1c0-0.1,0-0.3,0-0.4v-0.2l0.1,0.1c1.5,0.8,3.3,1.2,5.6,1.4V12
	c0,0,0,0,0,0c-0.1,0-0.2,0-0.2,0c-1.5-0.1-2.7-0.4-3.9-0.8c-0.4-0.2-0.8-0.4-1.2-0.7l-0.1-0.1C4,10.3,3.8,10.1,3.8,9.9
	c0-0.4,0-0.7,0-1c0-0.1,0-0.2,0-0.4V8.3l0.1,0.1c4.4,1.8,8.9,1.8,13.3,0l0.1-0.1v0.4c0,0.2,0,0.4,0,0.6v0.1c0,0.1,0,0.2,0,0.2
	c0,0,0.1,0,0.1,0C17.5,9.7,17.6,9.7,17.6,9.7z M17,6.2c-0.6,0.5-1.3,0.8-2,1c-1.2,0.4-2.6,0.6-4.4,0.6h0c-0.1,0-0.1,0-0.2,0
	c-1.9,0-3.4-0.3-4.9-0.8C5.3,7,5,6.8,4.7,6.6C4.6,6.5,4.5,6.5,4.3,6.4c-0.1,0-0.2-0.1-0.2-0.2l0,0C3.9,6,3.8,5.9,3.8,5.7
	c0-0.2,0.1-0.3,0.3-0.5C4.3,5,4.6,4.8,4.9,4.7c0.9-0.5,2-0.8,3.3-1c2.1-0.3,4.1-0.2,5.9,0.2c0.8,0.2,1.8,0.5,2.7,1.1
	C16.9,5,17,5.1,17.1,5.2c0.2,0.2,0.3,0.3,0.3,0.5S17.2,6,17,6.2z"/>
<path d="M22.2,13.6c-1.3-1.5-2.9-2.3-4.8-2.3c-0.3,0-0.6,0-1,0.1c-1.6,0.2-2.9,1-4,2.2c-1.3,1.7-1.7,3.5-1.2,5.6
	c0.4,1.5,1.3,2.8,2.6,3.6c1.6,1.1,3.3,1.3,5.1,0.8c2.2-0.6,3.7-2.1,4.4-4.3c0.1-0.3,0.1-0.6,0.2-0.9c0-0.1,0-0.3,0.1-0.4l0-0.9
	c0,0,0-0.1,0-0.1C23.5,15.7,23,14.5,22.2,13.6z M20.6,20.9c-0.9,0.9-2,1.3-3.3,1.3c0,0,0,0,0,0c-2.6,0-4.6-2.1-4.6-4.7
	c0-1.2,0.5-2.4,1.4-3.3c0.9-0.9,2-1.3,3.3-1.3c0,0,0,0,0,0c1.2,0,2.4,0.5,3.3,1.4c0.9,0.9,1.3,2.1,1.3,3.3
	C22,18.9,21.5,20,20.6,20.9z"/>
<path d="M17.8,14.5c-0.4,0-0.8,0-1.1,0c-0.1,0-0.1,0-0.1,0c0,0,0,0,0,0.1c0,0.8,0,1.6,0,2.4l0,1.9H20l0-0.4c0-0.4,0-0.8,0-1.2
	c0,0,0,0,0,0c0,0-0.1,0-0.1,0c-0.3,0-0.6,0-0.8,0l-0.9,0v-2.7L17.8,14.5z"/>
</svg>
