<?xml version="1.0" encoding="utf-8"?>
<!-- Generator: Adobe Illustrator 22.0.0, SVG Export Plug-In . SVG Version: 6.00 Build 0)  -->
<svg version="1.1" id="图层_1" xmlns="http://www.w3.org/2000/svg" xmlns:xlink="http://www.w3.org/1999/xlink" x="0px" y="0px"
	 viewBox="0 0 200 200" style="enable-background:new 0 0 200 200;" xml:space="preserve">
<path d="M34,158.8c0,3.7,3,6.6,6.6,6.6h118.8c3.7,0,6.6-3,6.6-6.6v-48.2c0-36.5-29.6-66-66-66s-66,29.6-66,66V158.8z M48.9,110.6
	c0-28.2,22.9-51.1,51.1-51.1s51.1,22.9,51.1,51.1v39.9H77.6v-35.4c0-1.1-0.9-2.1-2.1-2.1h-9.1c-1.1,0-2.1,0.9-2.1,2.1v35.4H48.9
	V110.6z M38.9,58.3l8.2-8.2c0.6-0.6,0.6-1.7,0-2.3L33.1,33.7c-0.6-0.6-1.7-0.6-2.3,0l-8.2,8.2c-0.6,0.6-0.6,1.7,0,2.3l14.1,14.1
	C37.2,58.9,38.3,58.9,38.9,58.3z M177.5,41.9l-8.2-8.2c-0.6-0.6-1.7-0.6-2.3,0l-14.1,14.1c-0.6,0.6-0.6,1.7,0,2.3l8.2,8.2
	c0.6,0.6,1.7,0.6,2.3,0l14.1-14.1C178.1,43.6,178.1,42.6,177.5,41.9z M166.2,178.6H33.8c-3.7,0-6.6,3-6.6,6.6v5
	c0,0.9,0.7,1.7,1.7,1.7h142.4c0.9,0,1.7-0.7,1.7-1.7v-5C172.8,181.6,169.9,178.6,166.2,178.6z M94.2,31.3h11.6
	c0.9,0,1.7-0.7,1.7-1.7V9.8c0-0.9-0.7-1.7-1.7-1.7H94.2c-0.9,0-1.7,0.7-1.7,1.7v19.9C92.5,30.6,93.3,31.3,94.2,31.3z"/>
</svg>
