<?xml version="1.0" standalone="no"?><!DOCTYPE svg PUBLIC "-//W3C//DTD SVG 1.1//EN" "http://www.w3.org/Graphics/SVG/1.1/DTD/svg11.dtd"><svg t="1616406856853" class="icon" viewBox="0 0 1024 1024" version="1.1" xmlns="http://www.w3.org/2000/svg" p-id="2674" xmlns:xlink="http://www.w3.org/1999/xlink" width="200" height="200"><defs><style type="text/css"></style></defs><path d="M531.072 345.728a42.666667 42.666667 0 0 1 42.666667 42.666667v170.666666a42.666667 42.666667 0 0 1-85.333334 0v-170.666666a42.666667 42.666667 0 0 1 42.666667-42.666667z m-30.165333 311.168a42.624 42.624 0 1 1 60.330666 60.330667 42.624 42.624 0 1 1-60.330666-60.330667zM531.072 170.666667c-14.890667 0-28.672 7.765333-36.437333 20.437333l-360.96 602.581333a42.624 42.624 0 0 0 36.010666 64h722.304a42.666667 42.666667 0 0 0 36.821334-63.402666L567.552 191.189333A42.666667 42.666667 0 0 0 531.072 170.666667z m0-85.333334c44.757333 0 86.229333 23.381333 109.568 61.824l361.728 603.904a128 128 0 0 1-109.909333 192H169.216a128 128 0 0 1-109.098667-192.597333l361.386667-603.306667A128.128 128.128 0 0 1 531.072 85.333333z" p-id="2675"></path></svg>