<?xml version="1.0" encoding="utf-8"?>
<!-- Generator: Adobe Illustrator 22.0.0, SVG Export Plug-In . SVG Version: 6.00 Build 0)  -->
<svg version="1.1" id="图层_1" xmlns="http://www.w3.org/2000/svg" xmlns:xlink="http://www.w3.org/1999/xlink" x="0px" y="0px"
	 viewBox="0 0 25 25" style="enable-background:new 0 0 25 25;" xml:space="preserve">
<style type="text/css">
	.st0{stroke:#000000;stroke-width:0.4;stroke-miterlimit:10;}
</style>
<title>staff</title>
<path class="st0" d="M15.6,6.4c2.4,0,4.3,1.9,4.3,4.3c0,1.3-0.6,2.5-1.5,3.3c3,1.3,5,4.7,5,8.6c0,0.4-0.3,0.8-0.8,0.8h0
	c-0.4,0-0.8-0.3-0.8-0.8c0,0,0,0,0,0c0-4.2-2.8-7.6-6.2-7.6s-6.2,3.4-6.2,7.6c0,0.4-0.3,0.8-0.8,0.8c0,0,0,0,0,0
	c-0.4,0-0.8-0.3-0.8-0.8l0,0c0-3.9,2.1-7.3,5.1-8.6c-1.8-1.5-2.1-4.2-0.6-6C13.1,7,14.3,6.5,15.6,6.4L15.6,6.4z M9.4,1.6
	c1.9,0,3.6,1.2,4.1,3c0.2,0.4,0,0.9-0.4,1c-0.4,0.2-0.9,0-1-0.4c0,0,0-0.1,0-0.1l0,0c-0.4-1.4-1.9-2.3-3.3-1.9S6.4,5.2,6.8,6.6
	c0.3,1.2,1.4,2,2.6,2l0,0c0.4,0,0.8,0.3,0.8,0.8v0.1c-0.1,0.4-0.4,0.6-0.8,0.6H9.1c-3.3,0.2-5.9,3.5-5.9,7.6c0,0.4-0.3,0.8-0.8,0.8
	c0,0,0,0,0,0c-0.4,0-0.8-0.3-0.8-0.8l0,0c-0.1-3.6,1.8-7,5.1-8.6C4.9,7.7,4.6,5,6.1,3.2C6.9,2.2,8.1,1.6,9.4,1.6z M15.6,8
	c-1.5,0-2.7,1.2-2.7,2.7c0,1.5,1.2,2.7,2.7,2.7c1.5,0,2.7-1.2,2.7-2.7c0,0,0,0,0,0C18.3,9.2,17.1,8,15.6,8L15.6,8z"/>
</svg>
