<?xml version="1.0" encoding="utf-8"?>
<!-- Generator: Adobe Illustrator 22.0.0, SVG Export Plug-In . SVG Version: 6.00 Build 0)  -->
<svg version="1.1" id="图层_1" xmlns="http://www.w3.org/2000/svg" xmlns:xlink="http://www.w3.org/1999/xlink" x="0px" y="0px"
	 viewBox="0 0 25 25" style="enable-background:new 0 0 25 25;" xml:space="preserve">
<style type="text/css">
	.st0{stroke:#000000;stroke-width:0.3;stroke-miterlimit:10;}
</style>
<path class="st0" d="M22.4,12c0,2.3-0.9,4.6-2.2,6.2c-0.3,0.3-0.7,0.3-1,0.1c-0.3-0.3-0.3-0.7,0-0.9c0.5-0.6,1-1.4,1.3-2
	c0.5-1.1,0.7-2.1,0.7-3.3s-0.4-2.4-0.8-3.5c-0.4-1-1.1-1.9-1.8-2.7S16.9,4.5,15.8,4s-2.1-0.7-3.3-0.7S10.3,3.5,9.2,4
	c-1,0.4-1.9,1.1-2.7,1.8S5.1,7.6,4.6,8.6c-0.4,1.1-0.7,2.2-0.7,3.3s0.2,2.2,0.7,3.3c0.3,0.8,0.8,1.5,1.3,2c0.2,0.3,0.2,0.7,0,0.9
	c-0.3,0.3-0.8,0.3-1-0.1c-1.4-1.8-2.2-3.9-2.2-6.2c0-5.5,4.5-9.9,9.9-9.9C18.1,2,22.4,6.4,22.4,12z"/>
<path class="st0" d="M19,11.9c0,1.5-0.5,2.7-1.3,3.8c-0.3,0.3-0.8,0.4-1.1,0.1c-0.2-0.2-0.3-0.6-0.1-0.9c0.2-0.3,0.4-0.7,0.6-1
	c0.3-0.6,0.4-1.3,0.4-1.9s-0.1-1.4-0.4-1.9c-0.3-0.6-0.6-1.2-1.1-1.7c-0.5-0.5-1-0.9-1.7-1.1c-0.6-0.3-1.3-0.4-1.9-0.4
	S11.1,7,10.6,7.3c-0.7,0.2-1.2,0.5-1.7,1S8,9.2,7.8,9.9c-0.3,0.6-0.4,1.3-0.4,1.9s0.1,1.4,0.4,1.9c0.2,0.4,0.3,0.7,0.6,1
	c0.2,0.3,0.2,0.7-0.1,0.9C8,16,7.5,16,7.2,15.6C6.5,14.5,6,13.2,6,11.8c0-3.6,2.9-6.5,6.5-6.5S19,8.4,19,11.9z"/>
<path class="st0" d="M13.6,14.4c1-0.4,1.7-1.4,1.7-2.4c0-1.6-1.2-2.7-2.7-2.8c-1.6,0-2.7,1.2-2.7,2.7c0,1.1,0.7,2,1.7,2.5
	c0.3,0.1,0.4,0.4,0.4,0.6v6.1c0,0.8-0.6,1.4-1.4,1.4h-0.3c-0.2,0-0.4,0.2-0.4,0.4v0.7c0,0.2,0.2,0.4,0.4,0.4h4.8
	c0.2,0,0.4-0.2,0.4-0.4v-0.7c0-0.2-0.2-0.4-0.4-0.4h-0.4c-0.8,0-1.4-0.6-1.4-1.4V15C13.2,14.8,13.4,14.5,13.6,14.4z M12.5,13.3
	c-0.8,0-1.4-0.6-1.4-1.4s0.6-1.4,1.4-1.4s1.4,0.6,1.4,1.4C13.9,12.6,13.3,13.3,12.5,13.3z"/>
</svg>
