<?xml version="1.0" encoding="utf-8"?>
<!-- Generator: Adobe Illustrator 22.0.0, SVG Export Plug-In . SVG Version: 6.00 Build 0)  -->
<svg version="1.1" id="图层_1" xmlns="http://www.w3.org/2000/svg" xmlns:xlink="http://www.w3.org/1999/xlink" x="0px" y="0px"
	 viewBox="0 0 200 200" style="enable-background:new 0 0 200 200;" xml:space="preserve">
<style type="text/css">
	.st0{stroke:#000000;stroke-width:2;stroke-miterlimit:10;}
</style>
<path class="st0" d="M177.6,119.1c-0.5-0.3-1-0.5-1.4-0.8c0.1-1.4,0.1-2.8,0.1-4.2c0-29.1-16.4-55.4-42.2-68.2c0-0.7,0.1-1.3,0.1-2
	c0-18.8-15.3-34.1-34.1-34.1S65.9,25,65.9,43.8c0,0.7,0,1.3,0.1,2c-11.7,5.8-21.6,14.5-29,25.4C28.4,83.9,23.8,98.7,23.8,114
	c0,1.4,0,2.8,0.1,4.2c-0.5,0.3-1,0.5-1.5,0.8c-7.9,4.6-13.5,11.9-15.9,20.7s-1.1,18,3.4,25.9s11.9,13.5,20.7,15.9
	c2.9,0.8,5.9,1.2,8.9,1.2c5.9,0,11.8-1.6,17-4.6c0.4-0.2,0.8-0.5,1.2-0.7c12.5,8.4,27.1,12.8,42.3,12.8c8.6,0,17-1.4,25-4.2
	c6.1-2.1,11.9-5,17.3-8.6c0.4,0.2,0.8,0.5,1.2,0.7c5.3,3,11.1,4.6,17,4.6c3,0,6-0.4,8.9-1.2c8.8-2.4,16.2-8,20.7-15.9
	C199.5,149.4,193.9,128.5,177.6,119.1L177.6,119.1z M100,23.4c11.3,0,20.4,9.2,20.4,20.4s-9.2,20.4-20.4,20.4S79.6,55,79.6,43.8
	S88.7,23.4,100,23.4z M34.2,168.4c-5.3-1.4-9.7-4.8-12.4-9.5s-3.5-10.2-2-15.5c1.4-5.3,4.8-9.7,9.5-12.4c1.3-0.7,2.6-1.3,4-1.8h0.1
	c2-0.6,4-0.9,6.1-0.9c1.8,0,3.6,0.2,5.3,0.7c5.3,1.4,9.7,4.8,12.4,9.5c2.7,4.7,3.5,10.2,2,15.5c-1.4,5.3-4.8,9.7-9.5,12.4
	C45,169.1,39.5,169.8,34.2,168.4z M100,176.6c-11.5,0-22.5-3.1-32.2-8.9c2.1-3.1,3.6-6.5,4.6-10.2c2.4-8.8,1.1-18-3.4-25.9
	S57.1,118,48.3,115.7c-3.6-1-7.2-1.3-10.8-1.1c0-0.2,0-0.3,0-0.5c0-23,12.4-43.7,32.1-54.7C75.3,70.4,86.8,78,100,78
	s24.7-7.6,30.4-18.6c19.9,11,32.2,32,32.1,54.7c0,0.2,0,0.3,0,0.5c-3.6-0.2-7.3,0.2-10.8,1.1c-8.8,2.4-16.2,8-20.7,15.9
	c-4.6,7.9-5.8,17.1-3.4,25.9c1,3.7,2.6,7.1,4.6,10.2C122.5,173.5,111.5,176.6,100,176.6L100,176.6z M178.2,158.9
	c-5.6,9.8-18.1,13.1-27.9,7.5c-4.7-2.7-8.1-7.1-9.5-12.4c-1.4-5.3-0.7-10.8,2-15.5s7.1-8.1,12.4-9.5c1.7-0.5,3.5-0.7,5.3-0.7
	c3.5,0,7,0.9,10.2,2.7c4.7,2.7,8.1,7.1,9.5,12.4C181.7,148.6,180.9,154.1,178.2,158.9L178.2,158.9z"/>
</svg>
