<?xml version="1.0" encoding="utf-8"?>
<!-- Generator: Adobe Illustrator 22.0.0, SVG Export Plug-In . SVG Version: 6.00 Build 0)  -->
<svg version="1.1" id="图层_1" xmlns="http://www.w3.org/2000/svg" xmlns:xlink="http://www.w3.org/1999/xlink" x="0px" y="0px"
	 viewBox="0 0 200 200" style="enable-background:new 0 0 200 200;" xml:space="preserve">
<path d="M169.1,20.9h-30.4l-10.5,8.7h-57l-9.6-8.7H30.9c-4.7,0-8.5,4.7-8.5,10.4v144.1c0,5.8,3.8,10.4,8.5,10.4h138.1c0,0,0,0,0,0
	c4.7,0,8.5-4.7,8.5-10.4V31.3C177.5,25.5,173.7,20.9,169.1,20.9z M163.4,168.4H36.6V38.2H57l9.6,8.7h65.9l10.5-8.7h20.4V168.4z"/>
<path d="M147.4,84.3c-12.1-14.1-29.2-21.9-47.4-21.9s-35.3,7.9-47.4,21.9c-0.9,0.9-0.7,2.5,0.2,3.2l6.6,6c0.9,0.9,2.2,0.7,3.1-0.2
	c9.7-10.9,23.3-17.1,37.5-17.1s27.9,6.2,37.5,17.1c0.9,0.9,2.2,0.9,3.1,0.2l6.6-6C148.1,86.6,148.3,85.2,147.4,84.3z M100,94.7
	c-9.2,0-18,4.2-24.1,11.5c-0.9,0.9-0.7,2.5,0.2,3.5l7,5.5c0.9,0.7,2.2,0.7,2.9-0.2c3.7-4.2,8.8-6.5,14-6.5s10.3,2.3,13.8,6.2
	c0.7,0.9,2,0.9,2.9,0.2l7-5.5c1.1-0.9,1.1-2.3,0.2-3.5C118,98.8,109.2,94.7,100,94.7z M100.2,126.8c5.9,0,11,5.1,11,11.5
	c0,6.5-4.8,11.5-11,11.5s-11-5.1-11-11.5C89.2,131.9,94.3,126.8,100.2,126.8z"/>
</svg>
