<?xml version="1.0" encoding="utf-8"?>
<!-- Generator: Adobe Illustrator 22.0.0, SVG Export Plug-In . SVG Version: 6.00 Build 0)  -->
<svg version="1.1" id="图层_1" xmlns="http://www.w3.org/2000/svg" xmlns:xlink="http://www.w3.org/1999/xlink" x="0px" y="0px"
	 viewBox="0 0 25 25" style="enable-background:new 0 0 25 25;" xml:space="preserve">
<path d="M22,16.5L22,16.5c0.3,0.8,0,1.8-0.8,2.2l-8,3.9c-0.5,0.2-1,0.2-1.5,0l-8-3.9l0,0c-0.8-0.4-1.1-1.3-0.8-2.1l0,0l8.7,4.1
	l0.8,0.4l8.2-4l0,0L22,16.5z"/>
<path d="M22,11.9L22,11.9c0.3,0.8,0,1.8-0.8,2.2l-8,3.9c-0.5,0.2-1,0.2-1.5,0l-8-3.9l0,0C3,13.7,2.7,12.8,2.9,12l0,0l8.7,4.1
	l0.8,0.4l8.2-4l0,0C20.7,12.5,22,11.9,22,11.9z"/>
<path d="M21.3,6.1l-8-3.9v0c-0.5-0.2-1.1-0.2-1.6,0l-8,3.9c-0.6,0.3-1,0.9-1,1.6c0,0.7,0.4,1.3,1,1.6l8,3.9c0.5,0.2,1.1,0.2,1.6,0
	l8-3.9c0.6-0.3,1-0.9,1-1.6S21.9,6.4,21.3,6.1z M12.5,11.8L4.3,7.7l8.2-4.1l8.2,4.1L12.5,11.8z"/>
</svg>
