<?xml version="1.0" encoding="utf-8"?>
<!-- Generator: Adobe Illustrator 22.0.0, SVG Export Plug-In . SVG Version: 6.00 Build 0)  -->
<svg version="1.1" id="图层_1" xmlns="http://www.w3.org/2000/svg" xmlns:xlink="http://www.w3.org/1999/xlink" x="0px" y="0px"
	 viewBox="0 0 25 25" style="enable-background:new 0 0 25 25;" xml:space="preserve">
<style type="text/css">
	.st0{fill:#909399;}
</style>
<path class="st0" d="M21.9,20.9l-0.2,0v-7.5c0-0.5-0.4-0.8-0.8-0.8h-3.3V3c0-0.5-0.4-0.8-0.8-0.8H8.3C7.9,2.1,7.5,2.5,7.5,3v5.4H4.2
	c-0.5,0-0.8,0.4-0.8,0.8v11.7l-0.2,0c-0.5,0-0.8,0.4-0.8,0.8c0,0.5,0.4,0.8,0.8,0.8h18.7c0.5,0,0.8-0.4,0.8-0.8
	C22.7,21.3,22.3,20.9,21.9,20.9z M7.5,20.9H5V10.1h2.5V20.9z M15.8,20.9H9.2V3.8h6.7V20.9z M20,20.9h-2.5v-6.7H20V20.9z"/>
</svg>
