<?xml version="1.0" encoding="utf-8"?>
<!-- Generator: Adobe Illustrator 22.0.0, SVG Export Plug-In . SVG Version: 6.00 Build 0)  -->
<svg version="1.1" id="图层_1" xmlns="http://www.w3.org/2000/svg" xmlns:xlink="http://www.w3.org/1999/xlink" x="0px" y="0px"
	 viewBox="0 0 25 25" style="enable-background:new 0 0 25 25;" xml:space="preserve">
<style type="text/css">
	.st0{stroke:#000000;stroke-width:0.2;stroke-miterlimit:10;}
</style>
<path class="st0" d="M12.5,12.8c-2.9,0-5.2-2.4-5.2-5.3s2.3-5.3,5.2-5.3c2.9,0,5.2,2.4,5.2,5.3S15.4,12.8,12.5,12.8z M12.5,3.6
	c-2.1,0-3.9,1.8-3.9,3.9s1.7,3.9,3.9,3.9s3.9-1.8,3.9-3.9S14.6,3.6,12.5,3.6z M19.7,22.7H5.3c-1.2,0-2.2-1-2.2-2.2
	c0-3.9,3.1-7,6.8-7h5.1c3.8,0,6.8,3.1,6.8,6.9C21.9,21.7,20.9,22.7,19.7,22.7z M9.9,14.8c-3.1,0-5.5,2.5-5.5,5.6c0,0.6,0.4,1,0.9,1
	h14.4c0.5,0,0.9-0.4,0.9-0.9c0-3.1-2.5-5.7-5.5-5.7H9.9z"/>
</svg>
