<?xml version="1.0" standalone="no"?><!DOCTYPE svg PUBLIC "-//W3C//DTD SVG 1.1//EN" "http://www.w3.org/Graphics/SVG/1.1/DTD/svg11.dtd"><svg t="1618222794153" class="icon" viewBox="0 0 1024 1024" version="1.1" xmlns="http://www.w3.org/2000/svg" p-id="2768" xmlns:xlink="http://www.w3.org/1999/xlink" width="200" height="200"><defs><style type="text/css"></style></defs><path d="M305.066667 864H162.133333v-682.666667h580.266667v66.133334c0 17.066667 14.933333 32 32 32s32-14.933333 32-32V149.333333c0-17.066667-14.933333-32-32-32H130.133333c-17.066667 0-32 14.933333-32 32v746.666667c0 17.066667 14.933333 32 32 32h174.933334c17.066667 0 32-14.933333 32-32s-14.933333-32-32-32z" p-id="2769"></path><path d="M593.066667 313.6c0-17.066667-14.933333-32-32-32H226.133333c-17.066667 0-32 14.933333-32 32s14.933333 32 32 32h332.8c19.2 0 34.133333-14.933333 34.133334-32zM226.133333 441.6c-17.066667 0-32 14.933333-32 32s14.933333 32 32 32h211.2c17.066667 0 32-14.933333 32-32s-14.933333-32-32-32h-211.2zM791.466667 620.8c34.133333-29.866667 55.466667-74.666667 55.466666-123.733333 0-91.733333-74.666667-166.4-166.4-166.4s-166.4 74.666667-166.4 166.4c0 49.066667 21.333333 93.866667 55.466667 123.733333C460.8 665.6 384 772.266667 384 896c0 17.066667 14.933333 32 32 32S448 915.2 448 896c0-128 104.533333-232.533333 232.533333-232.533333S913.066667 768 913.066667 896c0 17.066667 14.933333 32 32 32s32-14.933333 32-32c0-123.733333-76.8-230.4-185.6-275.2z m-213.333334-123.733333c0-57.6 46.933333-102.4 102.4-102.4s102.4 46.933333 102.4 102.4-46.933333 102.4-102.4 102.4-102.4-44.8-102.4-102.4z" p-id="2770"></path></svg>